<svg width="12" height="13" viewBox="0 0 12 13" fill="none" xmlns="http://www.w3.org/2000/svg">
<path d="M4.33333 10.6666C4.13555 10.6666 3.94221 10.7253 3.77776 10.8351C3.61331 10.945 3.48514 11.1012 3.40945 11.2839C3.33377 11.4666 3.31396 11.6677 3.35255 11.8617C3.39113 12.0557 3.48637 12.2339 3.62623 12.3737C3.76608 12.5136 3.94426 12.6088 4.13824 12.6474C4.33222 12.686 4.53329 12.6662 4.71602 12.5905C4.89874 12.5148 5.05492 12.3866 5.1648 12.2222C5.27468 12.0577 5.33333 11.8644 5.33333 11.6666C5.33333 11.4014 5.22798 11.147 5.04044 10.9595C4.8529 10.772 4.59855 10.6666 4.33333 10.6666ZM11.3333 8.66661H3.33333C3.15652 8.66661 2.98695 8.59637 2.86193 8.47134C2.7369 8.34632 2.66667 8.17675 2.66667 7.99994C2.66667 7.82313 2.7369 7.65356 2.86193 7.52853C2.98695 7.40351 3.15652 7.33327 3.33333 7.33327H8.99414C9.42842 7.33187 9.85056 7.18977 10.1973 6.92826C10.544 6.66676 10.7966 6.29993 10.9173 5.88275L11.9743 2.18321C12.0026 2.08399 12.0076 1.97954 11.9887 1.87809C11.9698 1.77664 11.9277 1.68095 11.8656 1.59856C11.8034 1.51617 11.723 1.44933 11.6307 1.40329C11.5383 1.35726 11.4365 1.33329 11.3333 1.33327H3.15938C3.02137 0.944845 2.76696 0.608412 2.43082 0.369815C2.09467 0.131218 1.69314 0.00205946 1.28093 -6.10352e-05H0.666667C0.489856 -6.10352e-05 0.320286 0.0701768 0.195262 0.195201C0.0702379 0.320225 0 0.489795 0 0.666606C0 0.843417 0.0702379 1.01299 0.195262 1.13801C0.320286 1.26303 0.489856 1.33327 0.666667 1.33327H1.28093C1.42565 1.33378 1.56631 1.38115 1.68186 1.46829C1.7974 1.55544 1.88161 1.67766 1.92187 1.81667L2.02555 2.17983L2.02571 2.18321L3.11947 6.01133C2.61051 6.06608 2.14192 6.3139 1.81018 6.70376C1.47844 7.09361 1.30881 7.59583 1.33622 8.10699C1.36363 8.61815 1.58598 9.09934 1.95751 9.45149C2.32903 9.80364 2.82144 9.99993 3.33333 9.99994H11.3333C11.5101 9.99994 11.6797 9.9297 11.8047 9.80468C11.9298 9.67965 12 9.51008 12 9.33327C12 9.15646 11.9298 8.98689 11.8047 8.86187C11.6797 8.73684 11.5101 8.66661 11.3333 8.66661ZM10.4495 2.66661L9.63541 5.51621C9.59519 5.65534 9.51096 5.77768 9.39535 5.86489C9.27973 5.9521 9.13896 5.99948 8.99414 5.99994H4.50293L4.33297 5.40513L3.55095 2.66661H10.4495ZM9.66667 10.6666C9.46889 10.6666 9.27555 10.7253 9.1111 10.8351C8.94665 10.945 8.81847 11.1012 8.74279 11.2839C8.6671 11.4666 8.6473 11.6677 8.68588 11.8617C8.72447 12.0557 8.81971 12.2339 8.95956 12.3737C9.09941 12.5136 9.2776 12.6088 9.47158 12.6474C9.66556 12.686 9.86662 12.6662 10.0493 12.5905C10.2321 12.5148 10.3883 12.3866 10.4981 12.2222C10.608 12.0577 10.6667 11.8644 10.6667 11.6666C10.6667 11.4014 10.5613 11.147 10.3738 10.9595C10.1862 10.772 9.93188 10.6666 9.66667 10.6666Z" fill="white"/>
</svg>
