<svg width="29" height="29" viewBox="0 0 29 29" fill="none" xmlns="http://www.w3.org/2000/svg">
<path d="M14.6475 0C11.8586 0.00529896 9.13132 0.821527 6.798 2.34926C4.46467 3.877 2.62597 6.05031 1.50586 8.60447C0.385747 11.1586 0.0325671 13.9834 0.489338 16.7347C0.946109 19.486 2.19312 22.0452 4.07847 24.1004C5.42502 25.56 7.05929 26.7248 8.87832 27.5216C10.6973 28.3183 12.6617 28.7296 14.6475 28.7296C16.6334 28.7296 18.5977 28.3183 20.4168 27.5216C22.2358 26.7248 23.8701 25.56 25.2166 24.1004C27.102 22.0452 28.349 19.486 28.8057 16.7347C29.2625 13.9834 28.9093 11.1586 27.7892 8.60447C26.6691 6.05031 24.8304 3.877 22.4971 2.34926C20.1638 0.821527 17.4365 0.00529896 14.6475 0ZM14.6475 25.8834C11.6687 25.8789 8.80783 24.7191 6.66681 22.648C7.31684 21.0656 8.42262 19.7121 9.84365 18.7596C11.2647 17.8071 12.9368 17.2985 14.6475 17.2985C16.3583 17.2985 18.0304 17.8071 19.4514 18.7596C20.8725 19.7121 21.9782 21.0656 22.6283 22.648C20.4872 24.7191 17.6263 25.8789 14.6475 25.8834ZM11.7716 11.5037C11.7716 10.9349 11.9403 10.3789 12.2563 9.90596C12.5723 9.43302 13.0215 9.0644 13.547 8.84673C14.0725 8.62905 14.6507 8.5721 15.2086 8.68307C15.7665 8.79404 16.2789 9.06795 16.6811 9.47015C17.0833 9.87236 17.3572 10.3848 17.4682 10.9427C17.5792 11.5006 17.5222 12.0788 17.3046 12.6043C17.0869 13.1298 16.7183 13.579 16.2453 13.895C15.7724 14.211 15.2163 14.3797 14.6475 14.3797C13.8848 14.3797 13.1533 14.0767 12.6139 13.5373C12.0746 12.998 11.7716 12.2665 11.7716 11.5037ZM24.5839 20.1316C23.2991 17.934 21.3217 16.2246 18.9614 15.2712C19.6936 14.441 20.1707 13.4172 20.3354 12.3226C20.5001 11.228 20.3454 10.1091 19.89 9.10018C19.4346 8.09128 18.6977 7.23522 17.7678 6.63474C16.8379 6.03425 15.7545 5.71484 14.6475 5.71484C13.5406 5.71484 12.4572 6.03425 11.5273 6.63474C10.5974 7.23522 9.8605 8.09128 9.40506 9.10018C8.94963 10.1091 8.79499 11.228 8.9597 12.3226C9.1244 13.4172 9.60147 14.441 10.3336 15.2712C7.97335 16.2246 5.99596 17.934 4.71118 20.1316C3.68726 18.3874 3.14626 16.4021 3.14379 14.3797C3.14379 11.3287 4.35579 8.40268 6.51316 6.24531C8.67053 4.08794 11.5966 2.87594 14.6475 2.87594C17.6985 2.87594 20.6245 4.08794 22.7819 6.24531C24.9393 8.40268 26.1513 11.3287 26.1513 14.3797C26.1488 16.4021 25.6078 18.3874 24.5839 20.1316Z" fill="#333333"/>
</svg>
